<svg xmlns="http://www.w3.org/2000/svg" width="256" height="144" viewBox="0 0 256 144" fill="none">
  <path d="M-4.42307 -4.79999L-15.5 -24M-4.42307 -4.79999L6.65386 -24M-4.42307 -4.79999L-15.3951 -4.80011M-4.42307 -4.79999L-15.5 14.3999M-4.42307 -4.79999H39.8846M-4.42307 -4.79999L17.7308 33.5999M39.8846 -4.79999L28.8077 -24M39.8846 -4.79999L50.9615 -24M39.8846 -4.79999L17.7308 33.5999M39.8846 -4.79999H84.1923M39.8846 -4.79999L62.0384 33.5999M84.1923 -4.79999L73.1154 -24M84.1923 -4.79999L95.2692 -24M84.1923 -4.79999L62.0384 33.5999M84.1923 -4.79999H128.5M84.1923 -4.79999L106.346 33.5999M128.5 -4.79999L117.423 -24M128.5 -4.79999L139.577 -24M128.5 -4.79999L106.346 33.5999M128.5 -4.79999H172.808M128.5 -4.79999L150.654 33.5999M172.808 -4.79999L161.731 -24M172.808 -4.79999L183.885 -24M172.808 -4.79999L150.654 33.5999M172.808 -4.79999H217.115M172.808 -4.79999L194.962 33.5999M217.115 -4.79999L206.038 -24M217.115 -4.79999L228.192 -24M217.115 -4.79999L194.962 33.5999M217.115 -4.79999H261.423M217.115 -4.79999L239.269 33.5999M261.423 -4.79999L250.346 -24M261.423 -4.79999L272.5 -24M261.423 -4.79999L239.269 33.5999M261.423 -4.79999L272.395 -4.80011M261.423 -4.79999L272.5 14.3999M17.7308 33.5999L-4.42307 71.9999M17.7308 33.5999L-15.3951 33.5999M17.7308 33.5999H62.0384M17.7308 33.5999L39.8846 71.9999M62.0384 33.5999L39.8846 71.9999M62.0384 33.5999H106.346M62.0384 33.5999L84.1923 71.9999M106.346 33.5999L84.1923 71.9999M106.346 33.5999H150.654M106.346 33.5999L128.5 71.9999M150.654 33.5999L128.5 71.9999M150.654 33.5999H194.962M150.654 33.5999L172.808 71.9999M194.962 33.5999L172.808 71.9999M194.962 33.5999H239.269M194.962 33.5999L217.115 71.9999M239.269 33.5999L217.115 71.9999M239.269 33.5999L261.423 71.9999M239.269 33.5999L272.395 33.5999M-4.42307 71.9999L-15.5 52.7999M-4.42307 71.9999L-15.3951 71.9999M-4.42307 71.9999L-15.5 91.1999M-4.42307 71.9999H39.8846M-4.42307 71.9999L17.7308 110.4M39.8846 71.9999L17.7308 110.4M39.8846 71.9999H84.1923M39.8846 71.9999L62.0384 110.4M84.1923 71.9999L62.0384 110.4M84.1923 71.9999H128.5M84.1923 71.9999L106.346 110.4M128.5 71.9999L106.346 110.4M128.5 71.9999H172.808M128.5 71.9999L150.654 110.4M172.808 71.9999L150.654 110.4M172.808 71.9999H217.115M172.808 71.9999L194.962 110.4M217.115 71.9999L194.962 110.4M217.115 71.9999H261.423M217.115 71.9999L239.269 110.4M261.423 71.9999L272.5 52.7999M261.423 71.9999L239.269 110.4M261.423 71.9999L272.395 71.9999M261.423 71.9999L272.5 91.1999M17.7308 110.4L-4.42307 148.8M17.7308 110.4L-15.3951 110.4M17.7308 110.4H62.0384M17.7308 110.4L39.8846 148.8M62.0384 110.4L39.8846 148.8M62.0384 110.4H106.346M62.0384 110.4L84.1923 148.8M106.346 110.4L84.1923 148.8M106.346 110.4H150.654M106.346 110.4L128.5 148.8M150.654 110.4L128.5 148.8M150.654 110.4H194.962M150.654 110.4L172.808 148.8M194.962 110.4L172.808 148.8M194.962 110.4H239.269M194.962 110.4L217.115 148.8M239.269 110.4L217.115 148.8M239.269 110.4L261.423 148.8M239.269 110.4L272.395 110.4M-4.42307 148.8L-15.5 129.6M-4.42307 148.8L-15.3951 148.8M-4.42307 148.8L-15.5 168M-4.42307 148.8H39.8846M-4.42307 148.8L6.65383 168M39.8846 148.8L28.8077 168M39.8846 148.8H84.1923M39.8846 148.8L50.9615 168M84.1923 148.8L73.1154 168M84.1923 148.8H128.5M84.1923 148.8L95.2692 168M128.5 148.8L117.423 168M128.5 148.8H172.808M128.5 148.8L139.577 168M172.808 148.8L161.731 168M172.808 148.8H217.115M172.808 148.8L183.885 168M217.115 148.8L206.038 168M217.115 148.8H261.423M217.115 148.8L228.192 168M261.423 148.8L272.5 129.6M261.423 148.8L250.346 168M261.423 148.8L272.395 148.8M261.423 148.8L272.5 168" stroke="url(#paint0_linear_5060_770)" stroke-linecap="round" stroke-linejoin="round" stroke-dasharray="0.01 4"/>
  <defs>
    <linearGradient id="paint0_linear_5060_770" x1="-15.5" y1="72" x2="272.5" y2="72" gradientUnits="userSpaceOnUse">
      <stop stop-color="white" stop-opacity="0"/>
      <stop offset="1" stop-color="white" stop-opacity="0.2"/>
    </linearGradient>
  </defs>
</svg>