<svg xmlns="http://www.w3.org/2000/svg" width="256" height="144" viewBox="0 0 256 144" fill="none">
  <path d="M-15.026 -19L-10.1562 -24M-15.026 -11L-2.36452 -24M-15.026 -3L5.42718 -24M-15.026 5L13.2189 -24M-15.026 13L21.0106 -24M-15.026 21L28.8023 -24M-16 30L36.594 -24M-15.026 37L44.3857 -24M-15.026 45L52.1774 -24M-15.026 53L59.9691 -24M-15.026 61L67.7608 -24M-15.026 69L75.5525 -24M-15.1782 77.1562L83.3442 -24M-15.026 85L91.1359 -24M-15.026 93L98.9276 -24M-15.026 101L106.719 -24M-15.1478 109.125L114.511 -24M-15.026 117L122.303 -24M-15.026 125L130.094 -24M-15.026 133L137.886 -24M-15.026 141L145.678 -24M-15.026 149L153.469 -24M-15.026 157L161.261 -24M-15.026 165L169.053 -24M-10.1562 168L176.845 -24M-2.36452 168L184.636 -24M5.42718 168L192.428 -24M13.2189 168L200.22 -24M21.0106 168L208.011 -24M28.8023 168L215.803 -24M36.594 168L223.595 -24M44.3857 168L231.386 -24M52.1774 168L239.178 -24M59.9691 168L246.97 -24M67.7608 168L254.762 -24M75.5525 168L262.553 -24M83.3442 168L270.345 -24M91.1359 168L272 -17.6993M98.9276 168L272 -9.69926M106.719 168L272 -1.69926M114.511 168L272 6.30074M122.303 168L272 14.3007M130.094 168L272 22.3007M137.886 168L272 30.3007M145.678 168L272 38.3007M153.469 168L272 46.3007M161.261 168L272 54.3007M169.053 168L272 62.3007M176.845 168L272 70.3007M184.636 168L272 78.3007M192.428 168L272 86.3008M200.22 168L272 94.3007M208.011 168L272 102.301M215.803 168L272 110.301M223.595 168L272 118.301M231.386 168L272 126.301M239.178 168L272 134.301M246.97 168L272 142.301M254.762 168L272 150.301M262.553 168L272 158.301" stroke="#0F1519" stroke-linecap="round"/>
</svg>